# xmcd
#
# Track frame offsets:
#	150
#	25267
#	39572
#	61205
#	76097
#	96237
#	115537
#	136990
#	150040
#	187207
#
# Disc length: 2715 seconds
#
# Revision: 0
# Processed by: cddbd v1.5.2PL0 Copyright (c) Steve Scherf et al.
# Submitted via: audiograbber 1.83.01
#
DISCID=710a990a
DTITLE=Marius Müller-Westernhagen - Halleluja [CD-R]
DYEAR=1989
DGENRE=Rock
TTITLE0=SeXy
TTITLE1=Illusion
TTITLE2=Weil ich Dich Liebe
TTITLE3=Fertig
TTITLE4=Lieben werd' ich Dich Nie
TTITLE5=Nur ein Traum
TTITLE6=Halleluja
TTITLE7=Für 'ne bess're Welt
TTITLE8=Der Chor der Blöden
TTITLE9=Engel
EXTD=
EXTT0=
EXTT1=
EXTT2=
EXTT3=
EXTT4=
EXTT5=
EXTT6=
EXTT7=
EXTT8=
EXTT9=
PLAYORDER=
